<?xml version="1.0" standalone="no"?>
<!DOCTYPE svg PUBLIC "-//W3C//DTD SVG 20010904//EN"
 "http://www.w3.org/TR/2001/REC-SVG-20010904/DTD/svg10.dtd">
<svg version="1.0" xmlns="http://www.w3.org/2000/svg"
 width="128.000000pt" height="128.000000pt" viewBox="0 0 128.000000 128.000000"
 preserveAspectRatio="xMidYMid meet">
<metadata>
Created by potrace 1.14, written by Peter Selinger 2001-2017
</metadata>
<g transform="translate(0.000000,128.000000) scale(0.100000,-0.100000)"
fill="#000000" stroke="none">
<path d="M618 1105 c-2 -1 -28 -5 -58 -9 -122 -14 -265 -116 -328 -234 -34
-63 -62 -185 -56 -235 2 -17 6 -49 9 -70 9 -67 61 -164 119 -226 93 -96 200
-142 335 -143 248 -1 455 207 452 452 -1 80 -1 83 -19 145 -42 145 -207 291
-350 310 -90 12 -101 13 -104 10z m148 -58 c132 -48 233 -151 273 -279 30 -94
18 -226 -30 -320 -29 -58 -110 -140 -167 -171 -235 -128 -517 -18 -609 237
-19 52 -25 160 -12 217 45 203 228 343 434 334 39 -2 89 -10 111 -18z"/>
<path d="M575 961 c-163 -42 -258 -190 -233 -360 16 -107 66 -178 157 -223 36
-17 64 -22 131 -22 77 -1 92 2 152 32 36 18 69 40 72 49 9 24 -22 66 -42 58
-85 -35 -194 -40 -250 -11 -89 46 -129 180 -83 282 31 68 100 104 201 104 65
0 77 -9 82 -60 3 -34 5 -35 43 -35 l39 0 11 55 c16 80 15 83 -39 109 -38 19
-68 25 -130 27 -45 2 -94 0 -111 -5z"/>
</g>
</svg>
