<svg width="69" height="42" viewBox="0 0 69 42" fill="none" xmlns="http://www.w3.org/2000/svg">
<path d="M48.0808 6.54902e-07C42.78 0.00141759 37.9483 2.01063 34.3068 5.31067C30.6624 2.01488 25.8335 0.00425182 20.5384 0.00425182C20.4945 0.00425182 20.4492 0.00425182 20.4067 0.00425182C9.13072 0.0779324 0 9.25116 0 20.5427C0 31.8796 9.20156 41.0797 20.537 41.0797C25.8321 41.0797 30.661 39.0719 34.304 35.7733C33.5431 35.0861 32.8544 34.3252 32.2041 33.5289H36.4449C35.8059 34.3125 35.1088 35.0464 34.3592 35.7294H34.3564C34.3394 35.7478 34.321 35.7591 34.304 35.7747C37.9497 39.0762 42.7843 41.0882 48.0879 41.0868C59.4304 41.0826 68.6221 31.8838 68.6192 20.5427C68.6192 20.5385 68.6192 20.5356 68.6192 20.5328C68.6207 9.19165 59.4233 -0.00283321 48.0808 6.54902e-07ZM32.4393 7.43182H36.3429C36.9182 8.12895 37.4524 8.86292 37.937 9.6309H30.9727C31.4219 8.89693 31.915 8.1417 32.4393 7.43182ZM29.7598 11.7875H39.1215C39.4545 12.4988 39.7492 13.2342 40.0071 13.988H28.6504C28.7637 13.7754 29.1605 12.9196 29.7598 11.7875ZM8.38399 25.774L9.62948 17.9214L6.8197 25.774H5.3135L5.11796 17.9214L3.78746 25.774H1.67765L3.42614 15.3596H6.61708L6.72902 21.7499L8.88417 15.3596H12.3457L10.6213 25.774H8.38399ZM15.8441 25.757L15.9164 24.9253C15.8824 24.9295 15.2164 25.9299 13.6734 25.9299C12.8658 25.9299 11.5622 25.4892 11.5622 23.5735C11.5622 21.1378 13.5487 20.3302 15.4403 20.3302C15.7379 20.3302 16.3797 20.384 16.3797 20.384C16.3797 20.384 16.452 20.2352 16.452 19.8328C16.452 19.1711 15.8569 19.0804 15.0422 19.0804C13.6068 19.0804 12.6589 19.4644 12.6589 19.4644L12.9763 17.5799C12.9763 17.5799 14.1268 17.0981 15.6245 17.0981C16.3996 17.0981 18.6284 17.1803 18.6284 19.735L17.7698 25.757H15.8441ZM23.9816 23.1045C23.9816 26.0106 21.1661 25.886 20.6745 25.886C18.8395 25.886 18.2728 25.6323 18.2203 25.6182L18.5122 23.7053C18.5151 23.6883 19.4332 24.0383 20.4548 24.0383C21.0443 24.0383 21.8094 23.9802 21.8094 23.276C21.8094 22.2218 19.0719 22.474 19.0719 19.9703C19.0719 17.7613 20.7127 17.1151 22.3309 17.1151C23.5806 17.1151 24.3486 17.2866 24.3486 17.2866L24.0723 19.2164C24.0723 19.2164 22.8863 19.1187 22.5788 19.1187C21.8009 19.1187 21.3773 19.2887 21.3773 19.8328C21.3759 20.9267 23.9816 20.3911 23.9816 23.1045ZM27.3624 23.8668C27.5565 23.8668 27.7761 23.8002 27.9263 23.8002L27.6529 25.6578C27.4332 25.7188 26.8112 25.9398 26.0135 25.9455C24.9947 25.954 24.2706 25.3844 24.2706 24.0921C24.2706 23.225 25.5133 16.0794 25.5615 16.0326H27.7478L27.5253 17.3107H28.6164L28.3372 19.3695H27.1796L26.5647 23.1626C26.5179 23.4644 26.6015 23.8668 27.3624 23.8668ZM32.1715 17.0698C34.5718 17.0698 35.2901 18.8268 35.2901 20.2678C35.2901 20.8445 35.0011 22.2614 35.0011 22.2614H30.5576C30.5576 22.2614 30.1467 24.0114 32.4945 24.0114C33.5955 24.0114 34.8169 23.4729 34.8169 23.4729L34.4315 25.5799C34.4315 25.5799 33.7258 25.9398 32.1219 25.9398C30.3833 25.9398 28.3443 25.2044 28.3443 22.1155C28.3457 19.4389 29.9724 17.0698 32.1715 17.0698ZM37.9625 31.4134H30.6766C30.2331 30.7049 29.8194 29.9781 29.4637 29.2143H39.1598C38.8027 29.9738 38.4031 30.7078 37.9625 31.4134ZM37.4736 25.7896H35.2292L36.5937 17.3135H38.6298L38.4343 18.542C38.4343 18.542 39.1598 17.2058 40.1389 17.2058C40.4237 17.2058 40.5611 17.2342 40.5611 17.2342C40.2707 17.8264 40.0142 18.3691 39.7478 19.7705C38.2289 19.232 38.1127 22.1693 37.4736 25.7896ZM46.0248 25.6578C46.0248 25.6578 44.8488 25.9582 44.112 25.9582C41.502 25.9582 40.1771 24.1573 40.1771 21.4297C40.1771 17.3163 42.6327 15.1258 45.1562 15.1258C46.2969 15.1258 47.6189 15.6614 47.6189 15.6614L47.2618 17.9781C47.2618 17.9781 46.3677 17.3532 45.2554 17.3532C43.7676 17.3532 42.4329 18.7729 42.4329 21.3532C42.4329 22.6242 43.0549 23.8087 44.6079 23.8087C45.3461 23.8087 46.4159 23.2717 46.4159 23.2717L46.0248 25.6578ZM51.2887 25.7613L51.3624 24.9239C51.327 24.9281 50.661 25.9285 49.1194 25.9285C48.3118 25.9285 47.0082 25.4878 47.0082 23.5721C47.0082 21.1364 48.9947 20.3287 50.8849 20.3287C51.1825 20.3287 51.8257 20.3826 51.8257 20.3826C51.8257 20.3826 51.8994 20.2352 51.8994 19.8328C51.8994 19.1711 51.3043 19.0804 50.4882 19.0804C49.0528 19.0804 48.1063 19.4644 48.1063 19.4644L48.4237 17.5799C48.4237 17.5799 49.5742 17.0981 51.0734 17.0981C51.847 17.0981 54.0773 17.1803 54.0758 19.735L53.2172 25.757C53.2158 25.7613 51.2887 25.7613 51.2887 25.7613ZM55.8328 25.7896H53.5884L54.9529 17.3135H56.9905L56.7949 18.542C56.7949 18.542 57.5218 17.2058 58.5009 17.2058C58.7857 17.2058 58.9217 17.2342 58.9217 17.2342C58.6327 17.8264 58.3734 18.3691 58.1084 19.7705C56.5881 19.232 56.4719 22.1693 55.8328 25.7896ZM62.5335 25.7669L62.6284 24.9862C62.6284 24.9862 61.903 25.9015 60.5909 25.9015C58.773 25.9015 57.8817 24.146 57.8817 22.3521C57.8817 19.5778 59.5509 17.1591 61.5544 17.1591C62.8438 17.1619 63.6671 18.2997 63.6671 18.2997L64.1403 15.3737L66.3323 15.3695L64.6603 25.7669H62.5335ZM66.858 25.4736C66.7999 25.5785 66.7177 25.6592 66.6129 25.7216C66.5094 25.7797 66.3989 25.8094 66.2827 25.8094C66.1694 25.8094 66.0603 25.7797 65.9554 25.7216C65.8506 25.6592 65.7684 25.5785 65.7103 25.4736C65.6508 25.3674 65.6224 25.2597 65.6224 25.1449C65.6224 25.0287 65.6522 24.9182 65.7103 24.8133C65.7684 24.7085 65.8548 24.6235 65.9582 24.5668C66.0659 24.5087 66.1722 24.4789 66.2827 24.4789C66.3961 24.4789 66.5038 24.5087 66.6086 24.5668C66.7163 24.6249 66.7985 24.7057 66.858 24.8133C66.9189 24.9196 66.9458 25.0301 66.9458 25.1449C66.9458 25.2597 66.9175 25.3688 66.858 25.4736Z" fill="#737373"/>
<path d="M15.6165 21.9556C14.0139 21.9556 13.6895 22.6754 13.6895 23.2747C13.6895 23.5836 13.8666 24.0994 14.5453 24.0994C15.8616 24.0994 16.1351 22.3736 16.0926 22.0066C16.0302 21.9938 15.9906 21.957 15.6165 21.9556Z" fill="#737373"/>
<path d="M32.179 19.0271C30.9874 19.0271 30.7578 20.3831 30.7578 20.5262H33.185C33.185 20.4171 33.4131 19.0271 32.179 19.0271Z" fill="#737373"/>
<path d="M61.9325 19.2637C60.9704 19.2637 60.2095 20.3802 60.2109 22.0763C60.2109 23.1106 60.5793 23.7738 61.3672 23.7738C62.5517 23.7738 63.1227 22.2279 63.1227 21.0759C63.1227 19.8049 62.7189 19.2637 61.9325 19.2637Z" fill="#737373"/>
<path d="M66.7586 24.8702C66.709 24.7824 66.6396 24.7143 66.5518 24.6647C66.4639 24.6152 66.3746 24.5911 66.2811 24.5911C66.1904 24.5911 66.0983 24.6166 66.0105 24.6647C65.9226 24.7101 65.8532 24.7809 65.8036 24.8702C65.754 24.9595 65.7285 25.0544 65.7285 25.1465C65.7285 25.2414 65.754 25.335 65.8008 25.4214C65.8532 25.5092 65.9198 25.5758 66.0076 25.6283C66.0955 25.6764 66.1862 25.7048 66.2811 25.7048C66.3761 25.7048 66.4696 25.6764 66.5546 25.6283C66.6424 25.5787 66.7105 25.5107 66.7615 25.4214C66.8111 25.3335 66.8337 25.2414 66.8337 25.1465C66.8337 25.053 66.8082 24.9595 66.7586 24.8702ZM66.4511 25.5107L66.3874 25.4001C66.3378 25.3109 66.2981 25.2542 66.2684 25.2329C66.2443 25.2145 66.2159 25.206 66.1748 25.206H66.1097V25.5092H65.9907V24.7951H66.2386C66.3222 24.7951 66.3846 24.8022 66.42 24.8178C66.4554 24.8305 66.4866 24.8546 66.5107 24.8858C66.5347 24.917 66.5433 24.9524 66.5433 24.9906C66.5433 25.0431 66.5234 25.087 66.4866 25.1267C66.4497 25.1678 66.3987 25.1848 66.3392 25.1918C66.3676 25.2032 66.386 25.2159 66.4001 25.2287C66.4299 25.2584 66.4639 25.301 66.505 25.369L66.5928 25.5107H66.4511Z" fill="#737373"/>
<path d="M51.0637 21.9556C49.4612 21.9556 49.1367 22.6754 49.1367 23.2747C49.1367 23.5836 49.3124 24.0994 49.9925 24.0994C51.3089 24.0994 51.5809 22.3736 51.5398 22.0066C51.4761 21.9938 51.4364 21.957 51.0637 21.9556Z" fill="#737373"/>
<path d="M66.4027 24.9417C66.3913 24.9275 66.3758 24.9162 66.3545 24.9063C66.3304 24.8992 66.295 24.8921 66.2383 24.8921V24.8935H66.1094V25.1089H66.2497C66.3162 25.1089 66.3602 25.1004 66.3871 25.0791C66.4083 25.0579 66.4211 25.0309 66.4211 24.9998C66.4211 24.9757 66.4154 24.9615 66.4027 24.9417Z" fill="#737373"/>
</svg>
