<svg width="31" height="30" viewBox="0 0 31 30" fill="none" xmlns="http://www.w3.org/2000/svg">
<path d="M15.8945 29.9648H15.9063C24.1611 29.9648 30.8593 23.2666 30.8593 15.0118V15C30.8593 6.73341 24.1611 0.0352173 15.8945 0.0352173C7.62787 0.0352173 0.929688 6.73341 0.929688 15V15.0118C0.94148 23.2666 7.62787 29.9648 15.8945 29.9648Z" fill="currentColor"/>
<path fill-rule="evenodd" clip-rule="evenodd" d="M15.3392 20.8962H16.4713C16.4713 20.8962 16.8132 20.8608 16.9901 20.6721C17.1552 20.4952 17.1434 20.1768 17.1434 20.1768C17.1434 20.1768 17.1199 18.6556 17.8274 18.4315C18.5232 18.2075 19.4194 19.9056 20.3628 20.5542C21.0822 21.0495 21.6246 20.9434 21.6246 20.9434L24.16 20.908C24.16 20.908 25.4808 20.8254 24.8558 19.7877C24.8086 19.7051 24.4902 19.0212 22.969 17.6061C21.377 16.132 21.5892 16.3678 23.5114 13.8206C24.6789 12.264 25.1388 11.3206 24.9973 10.9079C24.8558 10.5187 24.0067 10.6248 24.0067 10.6248L21.1529 10.6484C21.1529 10.6484 20.9406 10.6249 20.7873 10.7192C20.634 10.8135 20.5397 11.0258 20.5397 11.0258C20.5397 11.0258 20.0916 12.2286 19.4902 13.2546C18.2166 15.4126 17.7095 15.5306 17.509 15.3891C17.0255 15.0824 17.1434 14.139 17.1434 13.4669C17.1434 11.3796 17.4618 10.5069 16.5302 10.2829C16.2236 10.2121 15.9878 10.1531 15.1977 10.1531C14.1835 10.1414 13.3226 10.1532 12.8274 10.4008C12.4972 10.5541 12.2495 10.9197 12.4028 10.9315C12.5915 10.9551 13.016 11.0494 13.2401 11.356C13.5349 11.7569 13.5231 12.6414 13.5231 12.6414C13.5231 12.6414 13.6882 15.106 13.134 15.4126C12.7448 15.6249 12.2259 15.1886 11.0938 13.231C10.516 12.2287 10.0797 11.1201 10.0797 11.1201C10.0797 11.1201 9.99713 10.9079 9.84383 10.8017C9.66694 10.672 9.4075 10.6248 9.4075 10.6248L6.69521 10.6367C6.69521 10.6367 6.28247 10.6484 6.14096 10.8253C6.01124 10.9786 6.12916 11.3088 6.12916 11.3088C6.12916 11.3088 8.25183 16.2735 10.6575 18.7735C12.8391 21.0377 15.3392 20.8962 15.3392 20.8962Z" fill="#EFF7FF"/>
</svg>
