<svg width="68" height="21" viewBox="0 0 68 21" fill="none" xmlns="http://www.w3.org/2000/svg">
<path d="M27.1379 0.453125L23.6934 20.6671H29.2024L32.6498 0.453125H27.1379Z" fill="#737373"/>
<path d="M19.0752 0.476419L13.6795 14.2618L13.1043 12.1803C12.0401 9.67231 9.01924 6.07047 5.47266 3.80054L10.4064 20.6578L16.2357 20.6479L24.9116 0.472168L19.0752 0.476419Z" fill="#737373"/>
<path d="M11.0124 1.92396C10.6922 0.692649 9.76409 0.325663 8.61212 0.281738H0.0708467L0 0.684148C6.64683 2.29662 11.045 6.18185 12.87 10.8535L11.0124 1.92396Z" fill="#737373"/>
<path d="M43.8158 4.32891C45.6182 4.30057 46.9246 4.69447 47.9391 5.10255L48.4364 5.33635L49.1817 0.955187C48.0907 0.545693 46.3805 0.106445 44.2466 0.106445C38.8027 0.106445 34.9657 2.84821 34.9359 6.77736C34.9005 9.68066 37.6692 11.3016 39.7606 12.2694C41.9072 13.2613 42.627 13.8918 42.6171 14.7774C42.6001 16.1305 40.9054 16.7512 39.3227 16.7512C37.1166 16.7512 35.9448 16.4465 34.1353 15.6927L33.4255 15.3696L32.6504 19.8939C33.9398 20.4593 36.3188 20.9453 38.7885 20.9708C44.5796 20.9708 48.3429 18.2616 48.3826 14.0632C48.4067 11.7664 46.9373 10.0136 43.7535 8.57545C41.8265 7.63744 40.6476 7.01399 40.6589 6.06748C40.6589 5.22724 41.6593 4.32891 43.8158 4.32891Z" fill="#737373"/>
<path d="M63.3188 0.47583H59.0623C57.7403 0.47583 56.757 0.835731 56.176 2.15348L47.9961 20.6785H53.7814C53.7814 20.6785 54.7251 18.1875 54.9391 17.642C55.5724 17.642 61.1934 17.6505 61.994 17.6505C62.1583 18.3561 62.6656 20.6785 62.6656 20.6785H67.7765L63.3188 0.47583ZM56.5246 13.5045C56.978 12.3441 58.7194 7.85522 58.7194 7.85522C58.6897 7.91048 59.1686 6.68625 59.4534 5.92535L59.8247 7.66818C59.8247 7.66818 60.8803 12.4943 61.1013 13.5045H56.5246Z" fill="#737373"/>
</svg>
