<svg width="16" height="12" viewBox="0 0 16 12" fill="none" xmlns="http://www.w3.org/2000/svg">
<path fill-rule="evenodd" clip-rule="evenodd" d="M15.1673 10V2.66669C15.1673 1.56212 14.2719 0.666687 13.1673 0.666687L2.83398 0.666697C1.72941 0.666698 0.833984 1.56213 0.833984 2.6667V10C0.833984 11.1046 1.72941 12 2.83398 12L13.1673 12C14.2719 12 15.1673 11.1046 15.1673 10ZM13.834 4.17299V10C13.834 10.3682 13.5355 10.6667 13.1673 10.6667L2.83399 10.6667C2.4658 10.6667 2.16732 10.3682 2.16732 10L2.16732 4.17291L6.8761 7.37488C7.55482 7.83641 8.44662 7.83641 9.12534 7.37488L13.834 4.17299ZM13.8264 2.56576C13.7778 2.24546 13.5012 2.00002 13.1673 2.00002L2.83398 2.00003C2.50013 2.00003 2.2236 2.24543 2.17492 2.56568L7.62584 6.27231C7.85208 6.42615 8.14935 6.42615 8.37559 6.27231L13.8264 2.56576Z" fill="currentColor"/>
</svg>
