<svg width="74" height="21" viewBox="0 0 74 21" fill="none" xmlns="http://www.w3.org/2000/svg">
<path d="M19.8577 3.9714e-07V0.00911301C19.8486 0.00911301 16.9784 0 16.213 2.74266C15.5114 5.25752 13.5341 12.1977 13.4794 12.389H12.9327C12.9327 12.389 10.9099 5.29397 10.1992 2.73355C9.43377 -0.00911261 6.55444 3.9714e-07 6.55444 3.9714e-07H0V20.86H6.55748V8.47087H7.10418L10.9312 20.8599H15.484L19.311 8.47997H19.8577V20.8599H26.4152V3.9714e-07H19.8577ZM43.8127 3.9714e-07C43.8127 3.9714e-07 41.8901 0.173124 40.988 2.18693L36.344 12.389H35.7973V3.9714e-07H29.2398V20.86H35.4328C35.4328 20.86 37.4466 20.6778 38.3487 18.6732L42.9016 8.47096H43.4483V20.86H50.0058V3.9714e-07H43.8127ZM52.9215 9.47326V20.86H59.4789V14.2114H66.5832C69.6812 14.2114 72.3024 12.2341 73.2774 9.4763H52.9215V9.47326Z" fill="#737373" style="mix-blend-mode:darken"/>
<path d="M66.5869 0H52.002C52.7309 3.97275 55.7104 7.15886 59.5616 8.1976C60.4557 8.43977 61.378 8.56235 62.3043 8.56217H73.5452C73.6455 8.08836 73.691 7.60543 73.691 7.10428C73.6911 3.18003 70.5111 0 66.5869 0Z" fill="#737373" style="mix-blend-mode:darken"/>
</svg>
