<svg width="8" height="9" viewBox="0 0 8 9" fill="none" xmlns="http://www.w3.org/2000/svg">
<path d="M7.82253 0.646792C7.58589 0.414103 7.20364 0.414103 6.96701 0.646792L4 3.55838L1.03299 0.640825C0.79636 0.408136 0.414107 0.408136 0.177474 0.640825C-0.0591581 0.873514 -0.0591581 1.2494 0.177474 1.48208L3.14448 4.39964L0.177474 7.3172C-0.0591581 7.54989 -0.0591581 7.92577 0.177474 8.15846C0.414107 8.39115 0.79636 8.39115 1.03299 8.15846L4 5.2409L6.96701 8.15846C7.20364 8.39115 7.58589 8.39115 7.82253 8.15846C8.05916 7.92577 8.05916 7.54989 7.82253 7.3172L4.85552 4.39964L7.82253 1.48208C8.05309 1.25536 8.05309 0.873514 7.82253 0.646792Z" fill="currentColor"/>
</svg>
