<svg width="150" height="31" viewBox="0 0 150 31" fill="none" xmlns="http://www.w3.org/2000/svg">
<path d="M71.894 3.51052C71.894 3.54563 71.894 3.61583 71.894 3.65094C71.894 3.68604 71.894 3.72114 71.894 3.75625C71.894 3.79135 71.894 3.79135 71.8589 3.82646C71.8589 3.86156 71.8238 3.86156 71.7887 3.89666C71.7536 3.93177 71.6833 3.96687 71.6131 4.03708C71.5429 4.10729 71.4376 4.14239 71.3323 4.17749C71.227 4.2126 71.1217 4.2477 70.9813 4.2828C70.8409 4.31791 70.7355 4.31791 70.5951 4.31791C70.3143 4.31791 70.0686 4.2828 69.858 4.17749C69.6473 4.07218 69.4718 3.96687 69.3314 3.79135C69.191 3.61583 69.0857 3.40521 69.0155 3.15949C68.9453 2.91376 68.9102 2.59783 68.9102 2.28189C68.9102 1.89575 68.9453 1.57982 69.0506 1.29899C69.1559 1.01816 69.2612 0.807542 69.4367 0.632024C69.6122 0.456505 69.7877 0.316091 69.9984 0.245883C70.209 0.175676 70.4547 0.105469 70.7004 0.105469C70.8058 0.105469 70.9462 0.105468 71.0515 0.140572C71.1568 0.175676 71.2621 0.21078 71.3674 0.245883C71.4727 0.280987 71.5429 0.31609 71.6131 0.386298C71.6833 0.421401 71.7536 0.491609 71.7887 0.526712C71.8238 0.561816 71.8589 0.59692 71.8589 0.59692C71.8589 0.632023 71.894 0.632023 71.894 0.667127C71.894 0.70223 71.894 0.737334 71.894 0.772438C71.894 0.807542 71.894 0.842645 71.894 0.912853C71.894 1.01816 71.894 1.08837 71.8589 1.15858C71.8238 1.19368 71.7887 1.22879 71.7536 1.22879C71.7185 1.22879 71.6482 1.19368 71.6131 1.15858C71.5429 1.12347 71.4727 1.05327 71.4025 1.01816C71.3323 0.947956 71.227 0.912852 71.0866 0.877749C70.9813 0.842645 70.8058 0.807542 70.6653 0.807542C70.3143 0.807542 70.0686 0.947956 69.8931 1.19368C69.7175 1.43941 69.6122 1.82555 69.6122 2.317C69.6122 2.56272 69.6473 2.77335 69.6824 2.98397C69.7175 3.15949 69.7877 3.33501 69.8931 3.44032C69.9984 3.58073 70.1037 3.65094 70.2441 3.72114C70.3845 3.79135 70.5249 3.82646 70.7004 3.82646C70.876 3.82646 71.0164 3.79135 71.1217 3.75625C71.227 3.72114 71.3674 3.65094 71.4376 3.58073C71.5429 3.51052 71.6131 3.47542 71.6482 3.40521C71.7184 3.37011 71.7536 3.33501 71.7887 3.33501C71.8238 3.33501 71.8238 3.33501 71.8238 3.33501C71.8238 3.33501 71.8589 3.37011 71.8589 3.40521C71.8589 3.44032 71.8589 3.47542 71.894 3.51052C71.894 3.44032 71.894 3.40521 71.894 3.51052Z" fill="currentColor"/>
<path d="M76.1061 2.00101C76.1061 2.10632 76.071 2.17653 76.0359 2.24674C75.9657 2.28184 75.9306 2.31695 75.8603 2.31695H73.3329C73.3329 2.52757 73.368 2.73819 73.4031 2.8786C73.4382 3.05412 73.5084 3.19454 73.6137 3.33495C73.719 3.47537 73.8594 3.54557 73.9998 3.61578C74.1754 3.68599 74.3509 3.72109 74.5966 3.72109C74.7721 3.72109 74.9477 3.72109 75.0881 3.68599C75.2285 3.65089 75.3689 3.61578 75.4742 3.58068C75.5795 3.54557 75.6497 3.51047 75.7199 3.47537C75.7901 3.44026 75.8252 3.44026 75.8603 3.44026C75.8954 3.44026 75.8954 3.44026 75.9306 3.44026L75.9657 3.47537C75.9657 3.51047 75.9657 3.51047 76.0008 3.54557C76.0008 3.58068 76.0008 3.61578 76.0008 3.68599C76.0008 3.72109 76.0008 3.7562 76.0008 3.7913C76.0008 3.8264 76.0008 3.8264 76.0008 3.86151C76.0008 3.89661 76.0008 3.89661 75.9657 3.93171C75.9306 3.96682 75.9306 3.96682 75.9306 3.96682C75.9306 3.96682 75.8603 4.00192 75.7901 4.03703C75.7199 4.07213 75.6146 4.10723 75.4742 4.14234C75.3338 4.17744 75.1934 4.21254 75.053 4.24765C74.8774 4.28275 74.7019 4.28275 74.5264 4.28275C74.2105 4.28275 73.9296 4.24765 73.6839 4.14234C73.4382 4.03703 73.2276 3.93171 73.0872 3.7562C72.9116 3.58068 72.8063 3.37006 72.7361 3.08923C72.6659 2.8435 72.5957 2.52757 72.5957 2.17653C72.5957 1.8606 72.6308 1.54467 72.7361 1.29894C72.8063 1.01811 72.9467 0.807489 73.1223 0.631971C73.2978 0.456453 73.4733 0.316038 73.719 0.210727C73.9647 0.105416 74.2105 0.0703125 74.4913 0.0703125C74.8072 0.0703125 75.053 0.105416 75.2636 0.210727C75.4742 0.316038 75.6497 0.421349 75.7901 0.596867C75.9306 0.772386 76.0359 0.947904 76.1061 1.15853C76.1763 1.36915 76.2114 1.61487 76.2114 1.8606V2.00101H76.1061ZM75.404 1.79039C75.404 1.40425 75.3338 1.12342 75.1583 0.9128C74.9828 0.702178 74.737 0.596867 74.386 0.596867C74.2105 0.596867 74.0701 0.631971 73.9296 0.702178C73.7892 0.772385 73.6839 0.842593 73.6137 0.947904C73.5084 1.05321 73.4382 1.19363 73.4031 1.33404C73.368 1.47446 73.3329 1.61487 73.3329 1.79039H75.404Z" fill="currentColor"/>
<path d="M80.7408 2.10627C80.7408 2.45731 80.7057 2.73814 80.6355 3.01897C80.5653 3.2998 80.46 3.51042 80.3196 3.68594C80.1792 3.86145 80.0036 4.00187 79.793 4.10718C79.5824 4.21249 79.3367 4.24759 79.0909 4.24759C78.9856 4.24759 78.8803 4.24759 78.775 4.21249C78.6697 4.17739 78.5995 4.14228 78.4942 4.10718C78.3889 4.07208 78.3187 4.00187 78.2133 3.93166C78.108 3.86145 78.0378 3.75614 77.9325 3.68594V5.61664C77.9325 5.65174 77.9325 5.65174 77.9325 5.68684C77.9325 5.72195 77.8974 5.72195 77.8623 5.72195C77.8272 5.72195 77.7921 5.75705 77.757 5.75705C77.7219 5.75705 77.6517 5.75705 77.5815 5.75705C77.5113 5.75705 77.4411 5.75705 77.406 5.75705C77.3709 5.75705 77.3358 5.75705 77.3007 5.72195C77.2656 5.72195 77.2655 5.68684 77.2304 5.68684C77.1953 5.68684 77.2304 5.65174 77.2304 5.61664V0.245778C77.2304 0.210675 77.2304 0.210674 77.2304 0.175571L77.2656 0.140467C77.3007 0.140467 77.3358 0.105364 77.3709 0.105364C77.406 0.105364 77.4762 0.105364 77.5113 0.105364C77.5815 0.105364 77.6166 0.105364 77.6517 0.105364C77.6868 0.105364 77.7219 0.105363 77.757 0.140467C77.7921 0.140467 77.7921 0.175571 77.8272 0.175571C77.8272 0.175571 77.8272 0.210675 77.8272 0.245778V0.737229C77.9325 0.631918 78.0729 0.526608 78.1782 0.421297C78.2836 0.315986 78.3889 0.245778 78.4942 0.210675C78.5995 0.140467 78.7048 0.105364 78.8452 0.07026C78.9505 0.0351564 79.0909 0.0351562 79.1963 0.0351562C79.4771 0.0351562 79.7228 0.105364 79.8983 0.210675C80.1089 0.315985 80.2494 0.4564 80.3898 0.667022C80.5302 0.84254 80.6004 1.08827 80.6706 1.33399C80.7057 1.54461 80.7408 1.82544 80.7408 2.10627ZM80.0036 2.17648C80.0036 1.96586 80.0036 1.79034 79.9685 1.61482C79.9334 1.4393 79.8983 1.26378 79.8281 1.12337C79.7579 0.982955 79.6526 0.877644 79.5473 0.772333C79.4069 0.702126 79.2665 0.631919 79.0909 0.631919C78.9856 0.631919 78.9154 0.631918 78.8101 0.667022C78.7048 0.702125 78.6346 0.73723 78.5293 0.807437C78.424 0.877644 78.3538 0.947851 78.2485 1.05316C78.1431 1.15847 78.0378 1.26378 77.9325 1.4042V2.94876C78.1431 3.19448 78.3187 3.37 78.4942 3.51042C78.6697 3.65083 78.8452 3.68594 79.0558 3.68594C79.2314 3.68594 79.3718 3.65083 79.5122 3.54552C79.6526 3.47531 79.7579 3.3349 79.8281 3.19448C79.8983 3.05407 79.9685 2.87855 80.0036 2.70303C80.0036 2.52752 80.0036 2.352 80.0036 2.17648Z" fill="currentColor"/>
<path d="M84.9523 2.98386C84.9523 3.19449 84.9172 3.37 84.847 3.51042C84.7768 3.68594 84.6715 3.79125 84.496 3.89656C84.3556 4.00187 84.145 4.07208 83.9343 4.14228C83.7237 4.21249 83.4429 4.21249 83.1621 4.21249C83.0568 4.21249 82.9865 4.21249 82.8812 4.21249C82.7759 4.21249 82.7057 4.21249 82.6355 4.21249C82.5653 4.21249 82.46 4.21249 82.3898 4.21249C82.3196 4.21249 82.2143 4.21249 82.1441 4.17739C82.0387 4.17739 81.9334 4.14228 81.8983 4.07208C81.8281 4.00187 81.8281 3.93166 81.8281 3.79125V0.4564C81.8281 0.351089 81.8632 0.245778 81.8983 0.175571C81.9685 0.105363 82.0387 0.07026 82.1441 0.07026C82.2143 0.07026 82.2845 0.0702599 82.3898 0.0351562C82.46 0.0351562 82.5653 0.0351562 82.6355 0.0351562C82.7408 0.0351562 82.811 0.0351562 82.9163 0.0351562C83.0217 0.0351562 83.0919 0.0351562 83.1972 0.0351562C83.478 0.0351562 83.7237 0.0702602 83.9343 0.105364C84.145 0.140467 84.3205 0.210674 84.4258 0.315985C84.5662 0.421296 84.6715 0.526608 84.7066 0.631919C84.7768 0.772333 84.8119 0.912748 84.8119 1.08827C84.8119 1.29889 84.7417 1.47441 84.6364 1.64992C84.5311 1.79034 84.3556 1.93075 84.1099 1.96586C84.3907 2.03606 84.6013 2.14138 84.7417 2.31689C84.8821 2.49241 84.9523 2.70303 84.9523 2.98386ZM84.1099 1.19358C84.1099 1.08827 84.1099 1.01806 84.0748 0.947851C84.0397 0.877644 83.9694 0.807437 83.8992 0.772333C83.829 0.737229 83.7237 0.667022 83.5833 0.667022C83.4429 0.631918 83.3025 0.631919 83.127 0.631919C82.9865 0.631919 82.8812 0.631919 82.7759 0.631919C82.6706 0.631919 82.5653 0.631918 82.4951 0.667022V1.86055H83.2323C83.5131 1.86055 83.7588 1.79034 83.8992 1.68503C84.0397 1.54461 84.1099 1.4042 84.1099 1.19358ZM84.2503 2.98386C84.2503 2.87855 84.2152 2.77324 84.1801 2.66793C84.145 2.59772 84.0748 2.49241 84.0046 2.45731C83.9343 2.3871 83.7939 2.352 83.6535 2.31689C83.5131 2.28179 83.3727 2.28179 83.1621 2.28179H82.46V3.65083C82.5302 3.65083 82.5653 3.65083 82.6355 3.68594C82.7057 3.68594 82.7408 3.68594 82.811 3.68594C82.8812 3.68594 82.9163 3.68594 82.9865 3.68594C83.0568 3.68594 83.0919 3.68594 83.1621 3.68594C83.3376 3.68594 83.5131 3.68594 83.6535 3.65083C83.7939 3.61573 83.8992 3.58063 83.9694 3.51042C84.0397 3.44021 84.1099 3.37 84.145 3.26469C84.2152 3.19449 84.2503 3.08917 84.2503 2.98386Z" fill="currentColor"/>
<path d="M89.446 4.07208C89.446 4.10718 89.446 4.10718 89.446 4.14228C89.446 4.17739 89.4109 4.17739 89.3758 4.17739C89.3407 4.17739 89.3056 4.21249 89.2705 4.21249C89.2354 4.21249 89.1652 4.21249 89.095 4.21249C89.0248 4.21249 88.9546 4.21249 88.9195 4.21249C88.8844 4.21249 88.8493 4.21249 88.8142 4.17739C88.779 4.17739 88.7791 4.14228 88.744 4.14228C88.7088 4.14228 88.744 4.10718 88.744 4.07208V1.86055C88.744 1.75524 88.744 1.64992 88.744 1.50951C88.744 1.4042 88.7439 1.26378 88.779 1.15847C88.7088 1.26378 88.6386 1.3691 88.5684 1.50951C88.4982 1.61482 88.428 1.72013 88.3227 1.82544L86.6728 4.07208C86.6377 4.10718 86.6377 4.10718 86.6026 4.14228C86.5675 4.17739 86.5675 4.17739 86.5324 4.17739C86.4973 4.17739 86.4622 4.17739 86.4271 4.21249C86.392 4.21249 86.3569 4.21249 86.2867 4.21249C86.2165 4.21249 86.1814 4.21249 86.1463 4.21249C86.1112 4.21249 86.0761 4.21249 86.041 4.17739C86.0059 4.17739 86.0059 4.14228 86.0059 4.14228C86.0059 4.14228 86.0059 4.10718 86.0059 4.07208V0.210675C86.0059 0.175571 86.0059 0.175571 86.0059 0.140467C86.0059 0.105363 86.041 0.105364 86.0761 0.105364C86.1112 0.105364 86.1463 0.07026 86.1814 0.07026C86.2165 0.07026 86.2867 0.07026 86.3569 0.07026C86.4973 0.07026 86.6026 0.0702602 86.6377 0.105364C86.6728 0.140467 86.7079 0.175571 86.7079 0.210675V2.45731C86.7079 2.56262 86.7079 2.66793 86.7079 2.77324C86.7079 2.87855 86.7079 2.98386 86.6728 3.08917C86.743 2.98386 86.8132 2.87855 86.8835 2.77324C86.9537 2.66793 87.0239 2.56262 87.0941 2.45731L88.744 0.175571C88.744 0.140467 88.779 0.140467 88.8142 0.105364C88.8493 0.105364 88.8493 0.07026 88.8844 0.07026C88.9195 0.07026 88.9546 0.0702599 88.9897 0.0351562C89.0248 0.0351562 89.0599 0.0351562 89.1301 0.0351562C89.2003 0.0351562 89.2354 0.0351562 89.2705 0.0351562C89.3056 0.0351562 89.3407 0.0351564 89.3758 0.07026C89.4109 0.07026 89.4109 0.105364 89.4109 0.105364C89.4109 0.105364 89.4109 0.140467 89.4109 0.175571V4.07208H89.446Z" fill="currentColor"/>
<path d="M93.517 3.51052C93.517 3.54563 93.517 3.61583 93.517 3.65094C93.517 3.68604 93.517 3.72114 93.517 3.75625C93.517 3.79135 93.517 3.79135 93.4819 3.82646C93.4819 3.86156 93.4468 3.86156 93.4117 3.89666C93.3766 3.93177 93.3064 3.96687 93.2362 4.03708C93.166 4.10729 93.0607 4.14239 92.9554 4.17749C92.8501 4.2126 92.7447 4.2477 92.6043 4.2828C92.4639 4.31791 92.3586 4.31791 92.2182 4.31791C91.9374 4.31791 91.6916 4.2828 91.481 4.17749C91.2704 4.07218 91.0949 3.96687 90.9545 3.79135C90.814 3.61583 90.7087 3.40521 90.6385 3.15949C90.5683 2.91376 90.5332 2.59783 90.5332 2.28189C90.5332 1.89575 90.5683 1.57982 90.6736 1.29899C90.7789 1.01816 90.8842 0.807542 91.0598 0.632024C91.2353 0.456505 91.4108 0.316091 91.6214 0.245883C91.832 0.175676 92.0778 0.105469 92.3235 0.105469C92.4288 0.105469 92.5692 0.105468 92.6745 0.140572C92.7798 0.175676 92.8851 0.21078 92.9905 0.245883C93.0958 0.280987 93.166 0.31609 93.2362 0.386298C93.3064 0.421401 93.3766 0.491609 93.4117 0.526712C93.4468 0.561816 93.4819 0.59692 93.4819 0.59692C93.4819 0.632023 93.517 0.632023 93.517 0.667127C93.517 0.70223 93.517 0.737334 93.517 0.772438C93.517 0.807542 93.517 0.842645 93.517 0.912853C93.517 1.01816 93.517 1.08837 93.4819 1.15858C93.4468 1.19368 93.4117 1.22879 93.3766 1.22879C93.3415 1.22879 93.2713 1.19368 93.2362 1.15858C93.166 1.12347 93.0958 1.05327 93.0256 1.01816C92.9554 0.947956 92.85 0.912852 92.7096 0.877749C92.6043 0.842645 92.4288 0.807542 92.2884 0.807542C91.9373 0.807542 91.6916 0.947956 91.5161 1.19368C91.3406 1.43941 91.2353 1.82555 91.2353 2.317C91.2353 2.56272 91.2704 2.77335 91.3055 2.98397C91.3406 3.15949 91.4108 3.33501 91.5161 3.44032C91.6214 3.58073 91.7267 3.65094 91.8671 3.72114C92.0076 3.79135 92.148 3.82646 92.3235 3.82646C92.499 3.82646 92.6394 3.79135 92.7447 3.75625C92.8501 3.72114 92.9905 3.65094 93.0607 3.58073C93.166 3.51052 93.2362 3.47542 93.2713 3.40521C93.3415 3.37011 93.3766 3.33501 93.4117 3.33501C93.4468 3.33501 93.4468 3.33501 93.4468 3.33501C93.4468 3.33501 93.4819 3.37011 93.4819 3.40521C93.4819 3.44032 93.4819 3.47542 93.517 3.51052C93.517 3.44032 93.517 3.40521 93.517 3.51052Z" fill="currentColor"/>
<path d="M96.5011 5.47633C96.5011 5.51143 96.5011 5.51143 96.5011 5.51143L96.466 5.54654C96.466 5.54654 96.3958 5.54653 96.3607 5.58164C96.3256 5.58164 96.2905 5.58164 96.2203 5.58164C96.1501 5.58164 96.115 5.58164 96.0799 5.58164C96.0448 5.58164 96.0097 5.58164 95.9745 5.54654C95.9394 5.51143 95.9395 5.51143 95.9395 5.51143V5.47633V3.75625C95.9395 3.68604 95.9394 3.65094 95.9745 3.61583C96.0097 3.58073 96.0448 3.58073 96.115 3.58073H96.3958C96.5011 3.44032 96.6064 3.2999 96.6766 3.12438C96.7819 2.94886 96.8521 2.73824 96.9224 2.49252C96.9926 2.24679 97.0628 1.93086 97.133 1.57982C97.2032 1.22879 97.2734 0.807541 97.3085 0.31609C97.3085 0.280986 97.3085 0.245883 97.3436 0.210779C97.3436 0.175676 97.3787 0.140572 97.3787 0.140572C97.4138 0.105468 97.4138 0.105469 97.4489 0.105469C97.484 0.105469 97.5191 0.105469 97.5542 0.105469H99.6955C99.7657 0.105469 99.8008 0.140572 99.8711 0.175676C99.9062 0.210779 99.9413 0.280987 99.9413 0.351194V3.58073H100.468C100.538 3.58073 100.573 3.58073 100.608 3.61583C100.643 3.65094 100.643 3.68604 100.643 3.75625V5.47633C100.643 5.51143 100.643 5.51143 100.643 5.51143L100.608 5.54654C100.573 5.54654 100.538 5.54653 100.503 5.58164C100.468 5.58164 100.433 5.58164 100.363 5.58164C100.292 5.58164 100.257 5.58164 100.222 5.58164C100.187 5.58164 100.152 5.58164 100.117 5.54654C100.082 5.54654 100.082 5.51143 100.082 5.51143V5.47633V4.17749H96.6064V5.47633H96.5011ZM99.1339 0.70223H97.9052C97.835 1.15858 97.7999 1.54472 97.7297 1.89575C97.6595 2.21169 97.5893 2.49252 97.5191 2.70314C97.4489 2.91376 97.3787 3.08928 97.2734 3.22969C97.2032 3.37011 97.0979 3.47542 97.0277 3.58073H99.1339V0.70223Z" fill="currentColor"/>
<path d="M104.506 4.07223C104.506 4.10734 104.506 4.10734 104.506 4.14244C104.506 4.14244 104.471 4.17755 104.436 4.17755C104.401 4.17755 104.366 4.21265 104.331 4.21265C104.296 4.21265 104.225 4.21265 104.155 4.21265C104.085 4.21265 104.015 4.21265 103.98 4.21265C103.944 4.21265 103.909 4.21265 103.874 4.17755C103.839 4.17755 103.839 4.14244 103.804 4.14244C103.804 4.14244 103.804 4.10734 103.804 4.07223V0.702284H102.751C102.716 1.15863 102.646 1.54477 102.575 1.93091C102.505 2.28195 102.435 2.59788 102.365 2.84361C102.295 3.08933 102.189 3.33506 102.084 3.51058C101.979 3.6861 101.873 3.82651 101.768 3.93182C101.663 4.03713 101.522 4.10734 101.382 4.17755C101.242 4.21265 101.101 4.24775 100.926 4.24775C100.89 4.24775 100.89 4.24775 100.855 4.24775C100.82 4.24775 100.82 4.21265 100.82 4.21265C100.82 4.21265 100.785 4.14244 100.785 4.10734C100.785 4.07223 100.785 4.00203 100.785 3.93182C100.785 3.86161 100.785 3.79141 100.785 3.7563C100.785 3.7212 100.785 3.68609 100.82 3.65099C100.855 3.61589 100.855 3.61589 100.855 3.61589C100.855 3.61589 100.89 3.61589 100.926 3.61589C101.031 3.61589 101.101 3.58078 101.206 3.54568C101.277 3.51058 101.382 3.44037 101.452 3.33506C101.522 3.22975 101.593 3.08933 101.663 2.94892C101.733 2.7734 101.803 2.59788 101.838 2.35216C101.908 2.10643 101.944 1.8256 101.979 1.50967C102.014 1.19374 102.084 0.807595 102.119 0.386351C102.119 0.316144 102.154 0.245936 102.189 0.210833C102.224 0.175729 102.26 0.140625 102.33 0.140625H104.296C104.366 0.140625 104.401 0.175729 104.471 0.210833C104.506 0.245936 104.541 0.316144 104.541 0.386351V4.07223H104.506Z" fill="currentColor"/>
<path d="M108.683 4.07218C108.683 4.10729 108.683 4.10729 108.683 4.14239C108.683 4.17749 108.647 4.17749 108.612 4.17749C108.577 4.17749 108.542 4.2126 108.507 4.2126C108.472 4.2126 108.402 4.2126 108.332 4.2126C108.261 4.2126 108.191 4.2126 108.156 4.2126C108.121 4.2126 108.086 4.2126 108.051 4.17749C108.016 4.17749 108.016 4.14239 107.98 4.14239C107.945 4.14239 107.98 4.10729 107.98 4.07218V2.45741H107.559C107.384 2.45741 107.243 2.45741 107.138 2.49252C107.033 2.52762 106.962 2.56272 106.857 2.63293C106.787 2.70314 106.717 2.77335 106.647 2.87866C106.576 2.98397 106.541 3.12438 106.471 3.2648L106.155 4.00197C106.155 4.03708 106.12 4.07218 106.12 4.10729C106.12 4.14239 106.085 4.14239 106.05 4.17749C106.015 4.17749 105.98 4.2126 105.909 4.2126C105.874 4.2126 105.804 4.2126 105.734 4.2126C105.664 4.2126 105.629 4.2126 105.593 4.2126C105.558 4.2126 105.523 4.2126 105.488 4.2126C105.453 4.2126 105.453 4.17749 105.418 4.17749C105.418 4.17749 105.383 4.14239 105.383 4.10729C105.383 4.07218 105.383 4.07218 105.418 4.00197C105.418 3.96687 105.453 3.89666 105.523 3.75625L105.839 3.01907C105.909 2.84355 106.015 2.66804 106.12 2.56272C106.225 2.42231 106.366 2.317 106.506 2.2819C106.225 2.24679 106.015 2.10638 105.839 1.96596C105.664 1.79044 105.593 1.57982 105.593 1.29899C105.593 1.12347 105.629 0.947957 105.699 0.807542C105.769 0.667127 105.874 0.526713 106.05 0.421402C106.19 0.316091 106.401 0.245883 106.611 0.175676C106.822 0.105468 107.068 0.105469 107.349 0.105469C107.419 0.105469 107.489 0.105469 107.594 0.105469C107.7 0.105469 107.77 0.105469 107.875 0.105469C107.98 0.105469 108.051 0.105468 108.156 0.140572C108.261 0.140572 108.332 0.140572 108.402 0.175676C108.472 0.175676 108.542 0.21078 108.577 0.280987C108.612 0.351194 108.647 0.386297 108.647 0.491608V4.07218H108.683ZM107.98 0.632024C107.875 0.632024 107.77 0.59692 107.665 0.59692C107.559 0.59692 107.454 0.59692 107.349 0.59692C107.138 0.59692 106.998 0.59692 106.857 0.632024C106.717 0.667127 106.611 0.702231 106.541 0.772438C106.471 0.842645 106.401 0.912853 106.366 0.98306C106.331 1.05327 106.331 1.15858 106.331 1.26389C106.331 1.3692 106.366 1.47451 106.401 1.54472C106.436 1.61493 106.506 1.68513 106.576 1.75534C106.647 1.82555 106.752 1.86065 106.892 1.89575C107.033 1.93086 107.173 1.93086 107.419 1.93086H108.016V0.632024H107.98Z" fill="currentColor"/>
<path d="M114.755 3.51052C114.755 3.54563 114.755 3.61583 114.755 3.65094C114.755 3.68604 114.755 3.72114 114.755 3.75625C114.755 3.79135 114.755 3.79135 114.72 3.82646C114.72 3.86156 114.685 3.86156 114.65 3.89666C114.615 3.93177 114.545 3.96687 114.474 4.03708C114.404 4.10729 114.299 4.14239 114.194 4.17749C114.088 4.2126 113.983 4.2477 113.843 4.2828C113.702 4.31791 113.597 4.31791 113.456 4.31791C113.176 4.31791 112.93 4.2828 112.719 4.17749C112.509 4.07218 112.333 3.96687 112.193 3.79135C112.052 3.61583 111.947 3.40521 111.877 3.15949C111.807 2.91376 111.771 2.59783 111.771 2.28189C111.771 1.89575 111.807 1.57982 111.912 1.29899C112.017 1.01816 112.123 0.807542 112.298 0.632024C112.474 0.456505 112.649 0.316091 112.86 0.245883C113.07 0.175676 113.316 0.105469 113.562 0.105469C113.667 0.105469 113.807 0.105468 113.913 0.140572C114.018 0.175676 114.123 0.21078 114.229 0.245883C114.334 0.280987 114.404 0.31609 114.474 0.386298C114.545 0.421401 114.615 0.491609 114.65 0.526712C114.685 0.561816 114.72 0.59692 114.72 0.59692C114.72 0.632023 114.755 0.632023 114.755 0.667127C114.755 0.70223 114.755 0.737334 114.755 0.772438C114.755 0.807542 114.755 0.842645 114.755 0.912853C114.755 1.01816 114.755 1.08837 114.72 1.15858C114.685 1.19368 114.65 1.22879 114.615 1.22879C114.58 1.22879 114.51 1.19368 114.474 1.15858C114.404 1.12347 114.334 1.05327 114.264 1.01816C114.194 0.947956 114.088 0.912852 113.948 0.877749C113.843 0.842645 113.667 0.807542 113.527 0.807542C113.176 0.807542 112.93 0.947956 112.754 1.19368C112.579 1.43941 112.474 1.82555 112.474 2.317C112.474 2.56272 112.509 2.77335 112.544 2.98397C112.579 3.15949 112.649 3.33501 112.754 3.44032C112.86 3.58073 112.965 3.65094 113.105 3.72114C113.246 3.79135 113.386 3.82646 113.562 3.82646C113.737 3.82646 113.878 3.79135 113.983 3.75625C114.088 3.72114 114.229 3.65094 114.299 3.58073C114.404 3.51052 114.474 3.47542 114.51 3.40521C114.58 3.37011 114.615 3.33501 114.65 3.33501C114.685 3.33501 114.685 3.33501 114.685 3.33501C114.685 3.33501 114.72 3.37011 114.72 3.40521C114.72 3.44032 114.72 3.47542 114.755 3.51052C114.755 3.44032 114.72 3.40521 114.755 3.51052Z" fill="currentColor"/>
<path d="M118.372 0.421349C118.372 0.491556 118.372 0.52666 118.372 0.561764C118.372 0.596867 118.372 0.631971 118.337 0.667074C118.337 0.702178 118.302 0.702178 118.302 0.737282C118.302 0.737282 118.267 0.772386 118.232 0.772386H117.073V4.10723C117.073 4.14234 117.073 4.14234 117.073 4.17744C117.073 4.17744 117.038 4.21254 117.003 4.21254C116.968 4.21254 116.933 4.24765 116.898 4.24765C116.863 4.24765 116.792 4.24765 116.722 4.24765C116.652 4.24765 116.582 4.24765 116.547 4.24765C116.512 4.24765 116.476 4.24765 116.441 4.21254C116.406 4.17744 116.406 4.17744 116.371 4.17744C116.371 4.17744 116.371 4.14234 116.371 4.10723V0.772386H115.213C115.178 0.772386 115.178 0.772385 115.142 0.737282C115.107 0.737282 115.107 0.702178 115.107 0.667074C115.107 0.631971 115.072 0.596867 115.072 0.561764C115.072 0.52666 115.072 0.456453 115.072 0.421349C115.072 0.386245 115.072 0.316038 115.072 0.280935C115.072 0.245831 115.072 0.210727 115.107 0.175623C115.107 0.14052 115.142 0.14052 115.142 0.105416C115.142 0.105416 115.178 0.0703125 115.213 0.0703125H118.232C118.267 0.0703125 118.267 0.0703126 118.302 0.105416C118.337 0.105416 118.337 0.14052 118.337 0.175623C118.337 0.210727 118.372 0.245831 118.372 0.280935C118.372 0.351142 118.372 0.386245 118.372 0.421349Z" fill="currentColor"/>
<path d="M120.829 4.17755L120.302 5.58169C120.302 5.6168 120.232 5.6519 120.162 5.687C120.091 5.72211 119.986 5.72211 119.846 5.72211C119.776 5.72211 119.705 5.72211 119.67 5.72211C119.635 5.72211 119.6 5.687 119.565 5.687C119.53 5.687 119.53 5.6519 119.53 5.6168C119.53 5.58169 119.53 5.54659 119.565 5.51148L120.091 4.17755C120.056 4.17755 120.056 4.14244 120.021 4.10734C119.986 4.07223 119.986 4.03713 119.986 4.03713L118.617 0.386351C118.582 0.316144 118.582 0.28104 118.582 0.245936C118.582 0.210833 118.582 0.175729 118.617 0.175729C118.652 0.140625 118.687 0.140625 118.722 0.140625C118.758 0.140625 118.828 0.140625 118.933 0.140625C119.038 0.140625 119.073 0.140625 119.144 0.140625C119.179 0.140625 119.214 0.140625 119.249 0.175729C119.284 0.175729 119.284 0.210833 119.319 0.210833C119.319 0.245936 119.354 0.245936 119.354 0.316143L120.443 3.40526L121.496 0.28104C121.496 0.210833 121.531 0.175729 121.566 0.175729C121.601 0.175729 121.636 0.140625 121.671 0.140625C121.706 0.140625 121.776 0.140625 121.882 0.140625C121.952 0.140625 122.022 0.140625 122.092 0.140625C122.128 0.140625 122.198 0.175729 122.198 0.175729C122.233 0.210832 122.233 0.210833 122.233 0.245936C122.233 0.28104 122.233 0.316144 122.198 0.386351L120.829 4.17755Z" fill="currentColor"/>
<path d="M122.759 5.47633C122.759 5.51143 122.759 5.51143 122.759 5.51143L122.724 5.54654C122.724 5.54654 122.654 5.54653 122.619 5.58164C122.583 5.58164 122.548 5.58164 122.478 5.58164C122.408 5.58164 122.373 5.58164 122.338 5.58164C122.303 5.58164 122.267 5.58164 122.232 5.54654C122.197 5.51143 122.197 5.51143 122.197 5.51143V5.47633V3.75625C122.197 3.68604 122.197 3.65094 122.232 3.61583C122.267 3.58073 122.303 3.58073 122.373 3.58073H122.654C122.759 3.44032 122.864 3.2999 122.934 3.12438C123.04 2.94886 123.11 2.73824 123.18 2.49252C123.25 2.24679 123.321 1.93086 123.391 1.57982C123.461 1.22879 123.531 0.807541 123.566 0.31609C123.566 0.280986 123.566 0.245883 123.601 0.210779C123.601 0.175676 123.637 0.140572 123.637 0.140572C123.672 0.105468 123.672 0.105469 123.707 0.105469C123.742 0.105469 123.777 0.105469 123.812 0.105469H125.953C126.024 0.105469 126.059 0.140572 126.129 0.175676C126.164 0.210779 126.199 0.280987 126.199 0.351194V3.58073H126.726C126.796 3.58073 126.831 3.58073 126.866 3.61583C126.901 3.65094 126.901 3.68604 126.901 3.75625V5.47633C126.901 5.51143 126.901 5.51143 126.901 5.51143L126.866 5.54654C126.831 5.54654 126.796 5.54653 126.761 5.58164C126.726 5.58164 126.691 5.58164 126.62 5.58164C126.55 5.58164 126.515 5.58164 126.48 5.58164C126.445 5.58164 126.41 5.58164 126.375 5.54654C126.339 5.54654 126.339 5.51143 126.339 5.51143V5.47633V4.17749H122.864V5.47633H122.759ZM125.427 0.70223H124.198C124.128 1.15858 124.093 1.54472 124.023 1.89575C123.952 2.21169 123.882 2.49252 123.812 2.70314C123.742 2.91376 123.672 3.08928 123.566 3.22969C123.496 3.37011 123.391 3.47542 123.321 3.58073H125.427V0.70223Z" fill="currentColor"/>
<path d="M130.833 2.00101C130.833 2.10632 130.798 2.17653 130.762 2.24674C130.692 2.28184 130.657 2.31695 130.587 2.31695H128.059C128.059 2.52757 128.095 2.73819 128.13 2.8786C128.165 3.05412 128.235 3.19454 128.34 3.33495C128.446 3.47537 128.586 3.54557 128.726 3.61578C128.902 3.68599 129.077 3.72109 129.323 3.72109C129.499 3.72109 129.674 3.72109 129.815 3.68599C129.955 3.65089 130.095 3.61578 130.201 3.58068C130.306 3.54557 130.376 3.51047 130.446 3.47537C130.517 3.44026 130.552 3.44026 130.587 3.44026C130.622 3.44026 130.622 3.44026 130.657 3.44026L130.692 3.47537C130.692 3.51047 130.692 3.51047 130.727 3.54557C130.727 3.58068 130.727 3.61578 130.727 3.68599C130.727 3.72109 130.727 3.7562 130.727 3.7913C130.727 3.8264 130.727 3.8264 130.727 3.86151C130.727 3.89661 130.727 3.89661 130.692 3.93171C130.657 3.96682 130.657 3.96682 130.657 3.96682C130.657 3.96682 130.587 4.00192 130.517 4.03703C130.446 4.07213 130.341 4.10723 130.201 4.14234C130.06 4.17744 129.92 4.21254 129.78 4.24765C129.604 4.28275 129.428 4.28275 129.253 4.28275C128.937 4.28275 128.656 4.24765 128.41 4.14234C128.165 4.03703 127.954 3.93171 127.814 3.7562C127.638 3.58068 127.533 3.37006 127.463 3.08923C127.392 2.8435 127.322 2.52757 127.322 2.17653C127.322 1.8606 127.357 1.54467 127.463 1.29894C127.533 1.01811 127.673 0.807489 127.849 0.631971C128.024 0.456453 128.2 0.316038 128.446 0.210727C128.691 0.105416 128.937 0.0703125 129.218 0.0703125C129.534 0.0703125 129.78 0.105416 129.99 0.210727C130.201 0.316038 130.376 0.421349 130.517 0.596867C130.657 0.772386 130.762 0.947904 130.833 1.15853C130.903 1.36915 130.938 1.61487 130.938 1.8606V2.00101H130.833ZM130.095 1.79039C130.095 1.40425 130.025 1.12342 129.85 0.9128C129.674 0.702178 129.428 0.596867 129.077 0.596867C128.902 0.596867 128.762 0.631971 128.621 0.702178C128.481 0.772385 128.375 0.842593 128.305 0.947904C128.2 1.05321 128.13 1.19363 128.095 1.33404C128.059 1.47446 128.024 1.61487 128.024 1.79039H130.095Z" fill="currentColor"/>
<path d="M135.292 4.07213C135.292 4.10723 135.292 4.10723 135.292 4.14234C135.292 4.14234 135.257 4.17744 135.222 4.17744C135.187 4.17744 135.151 4.21254 135.116 4.21254C135.081 4.21254 135.011 4.21254 134.941 4.21254C134.871 4.21254 134.8 4.21254 134.765 4.21254C134.73 4.21254 134.695 4.21254 134.66 4.17744C134.625 4.14234 134.625 4.14234 134.59 4.14234C134.59 4.14234 134.59 4.10723 134.59 4.07213V2.38715H132.624V4.07213C132.624 4.10723 132.624 4.10723 132.624 4.14234C132.624 4.14234 132.589 4.17744 132.554 4.17744C132.519 4.17744 132.484 4.21254 132.448 4.21254C132.413 4.21254 132.343 4.21254 132.273 4.21254C132.203 4.21254 132.132 4.21254 132.097 4.21254C132.062 4.21254 132.027 4.21254 131.992 4.17744C131.957 4.17744 131.957 4.14234 131.922 4.14234C131.922 4.14234 131.922 4.10723 131.922 4.07213V0.210727C131.922 0.175623 131.922 0.175623 131.922 0.140519C131.922 0.140519 131.957 0.105416 131.992 0.105416C132.027 0.105416 132.062 0.0703125 132.097 0.0703125C132.132 0.0703125 132.203 0.0703125 132.273 0.0703125C132.343 0.0703125 132.413 0.0703125 132.448 0.0703125C132.484 0.0703125 132.519 0.0703126 132.554 0.105416C132.589 0.105416 132.589 0.140519 132.624 0.140519C132.624 0.140519 132.624 0.175623 132.624 0.210727V1.79039H134.59V0.210727C134.59 0.175623 134.59 0.175623 134.59 0.140519C134.59 0.140519 134.625 0.105416 134.66 0.105416C134.695 0.105416 134.73 0.0703125 134.765 0.0703125C134.8 0.0703125 134.871 0.0703125 134.941 0.0703125C135.011 0.0703125 135.081 0.0703125 135.116 0.0703125C135.151 0.0703125 135.187 0.0703126 135.222 0.105416C135.257 0.105416 135.257 0.140519 135.292 0.140519C135.292 0.140519 135.292 0.175623 135.292 0.210727V4.07213Z" fill="currentColor"/>
<path d="M139.294 0.421349C139.294 0.491556 139.294 0.52666 139.294 0.561764C139.294 0.596867 139.294 0.631971 139.259 0.667074C139.259 0.702178 139.224 0.702178 139.224 0.737282C139.224 0.737282 139.189 0.772386 139.153 0.772386H137.995V4.10723C137.995 4.14234 137.995 4.14234 137.995 4.17744C137.995 4.17744 137.96 4.21254 137.925 4.21254C137.89 4.21254 137.855 4.24765 137.82 4.24765C137.784 4.24765 137.714 4.24765 137.644 4.24765C137.574 4.24765 137.504 4.24765 137.468 4.24765C137.433 4.24765 137.398 4.24765 137.363 4.21254C137.328 4.17744 137.328 4.17744 137.293 4.17744C137.293 4.17744 137.293 4.14234 137.293 4.10723V0.772386H136.135C136.099 0.772386 136.099 0.772385 136.064 0.737282C136.029 0.737282 136.029 0.702178 136.029 0.667074C136.029 0.631971 135.994 0.596867 135.994 0.561764C135.994 0.52666 135.994 0.456453 135.994 0.421349C135.994 0.386245 135.994 0.316038 135.994 0.280935C135.994 0.245831 135.994 0.210727 136.029 0.175623C136.029 0.14052 136.064 0.14052 136.064 0.105416C136.064 0.105416 136.099 0.0703125 136.135 0.0703125H139.153C139.189 0.0703125 139.189 0.0703126 139.224 0.105416C139.259 0.105416 139.259 0.14052 139.259 0.175623C139.259 0.210727 139.294 0.245831 139.294 0.280935C139.294 0.351142 139.294 0.386245 139.294 0.421349Z" fill="currentColor"/>
<path d="M143.471 2.10622C143.471 2.42215 143.436 2.70298 143.33 2.98381C143.26 3.26464 143.12 3.47526 142.944 3.65078C142.769 3.8263 142.558 4.00182 142.312 4.10713C142.067 4.21244 141.786 4.28265 141.47 4.28265C141.154 4.28265 140.873 4.24754 140.627 4.14223C140.382 4.03692 140.206 3.89651 140.031 3.72099C139.89 3.54547 139.75 3.33485 139.68 3.05402C139.609 2.80829 139.574 2.49236 139.574 2.17643C139.574 1.86049 139.609 1.57967 139.68 1.29884C139.75 1.01801 139.89 0.807385 140.031 0.631866C140.206 0.456348 140.417 0.280829 140.662 0.175518C140.908 0.0702073 141.189 0 141.54 0C141.856 0 142.137 0.0351035 142.383 0.140415C142.628 0.245725 142.804 0.38614 142.979 0.561659C143.155 0.737177 143.26 0.947799 143.33 1.22863C143.401 1.50946 143.471 1.79029 143.471 2.10622ZM142.734 2.17643C142.734 1.96581 142.698 1.75518 142.663 1.57966C142.628 1.40415 142.558 1.22863 142.488 1.08821C142.383 0.947799 142.277 0.842488 142.137 0.772281C141.996 0.702073 141.786 0.666969 141.575 0.666969C141.365 0.666969 141.189 0.702073 141.049 0.772281C140.908 0.842488 140.768 0.947799 140.662 1.08821C140.557 1.22863 140.487 1.36904 140.452 1.57966C140.417 1.75518 140.382 1.96581 140.382 2.17643C140.382 2.38705 140.417 2.59767 140.452 2.77319C140.487 2.94871 140.557 3.12423 140.662 3.26464C140.768 3.40506 140.873 3.51037 141.013 3.58057C141.154 3.65078 141.365 3.68588 141.575 3.68588C141.786 3.68588 141.961 3.65078 142.102 3.58057C142.242 3.51037 142.383 3.40506 142.488 3.26464C142.593 3.12423 142.663 2.98381 142.698 2.77319C142.698 2.59767 142.734 2.38705 142.734 2.17643Z" fill="currentColor"/>
<path d="M147.683 2.98386C147.683 3.19449 147.648 3.37 147.577 3.51042C147.507 3.68594 147.402 3.79125 147.226 3.89656C147.086 4.00187 146.875 4.07208 146.665 4.14228C146.454 4.21249 146.173 4.21249 145.893 4.21249C145.787 4.21249 145.717 4.21249 145.612 4.21249C145.506 4.21249 145.436 4.21249 145.366 4.21249C145.296 4.21249 145.19 4.21249 145.12 4.21249C145.05 4.21249 144.945 4.21249 144.875 4.17739C144.769 4.17739 144.664 4.14228 144.629 4.07208C144.559 4.00187 144.559 3.93166 144.559 3.79125V0.4564C144.559 0.351089 144.594 0.245778 144.629 0.175571C144.699 0.105363 144.769 0.07026 144.875 0.07026C144.945 0.07026 145.015 0.0702599 145.12 0.0351562C145.19 0.0351562 145.296 0.0351562 145.366 0.0351562C145.471 0.0351562 145.541 0.0351562 145.647 0.0351562C145.752 0.0351562 145.822 0.0351562 145.928 0.0351562C146.208 0.0351562 146.454 0.0702602 146.665 0.105364C146.875 0.140467 147.051 0.210674 147.156 0.315985C147.297 0.421296 147.402 0.526608 147.437 0.631919C147.507 0.772333 147.542 0.912748 147.542 1.08827C147.542 1.29889 147.472 1.47441 147.367 1.64992C147.262 1.79034 147.086 1.93075 146.84 1.96586C147.121 2.03606 147.332 2.14138 147.472 2.31689C147.613 2.49241 147.683 2.70303 147.683 2.98386ZM146.84 1.19358C146.84 1.08827 146.84 1.01806 146.805 0.947851C146.77 0.877644 146.7 0.807437 146.63 0.772333C146.559 0.737229 146.454 0.667022 146.314 0.667022C146.173 0.631918 146.033 0.631919 145.857 0.631919C145.717 0.631919 145.612 0.631919 145.506 0.631919C145.401 0.631919 145.296 0.631918 145.226 0.667022V1.86055H145.963C146.244 1.86055 146.489 1.79034 146.63 1.68503C146.735 1.54461 146.84 1.4042 146.84 1.19358ZM146.946 2.98386C146.946 2.87855 146.911 2.77324 146.875 2.66793C146.84 2.59772 146.77 2.49241 146.7 2.45731C146.63 2.3871 146.489 2.352 146.349 2.31689C146.208 2.28179 146.068 2.28179 145.857 2.28179H145.155V3.65083C145.226 3.65083 145.261 3.65083 145.331 3.68594C145.401 3.68594 145.436 3.68594 145.506 3.68594C145.577 3.68594 145.612 3.68594 145.682 3.68594C145.752 3.68594 145.787 3.68594 145.857 3.68594C146.033 3.68594 146.208 3.68594 146.349 3.65083C146.489 3.61573 146.595 3.58063 146.665 3.51042C146.735 3.44021 146.805 3.37 146.84 3.26469C146.946 3.19449 146.946 3.08917 146.946 2.98386Z" fill="currentColor"/>
<path fill-rule="evenodd" clip-rule="evenodd" d="M32.8953 30.9262C32.1932 30.7858 31.7018 30.4699 31.3507 29.5221C33.6325 28.4689 35.844 26.6084 36.4057 24.081C35.7036 23.9055 34.8611 23.9406 34.5101 23.2736C32.79 20.2898 32.1932 16.2529 30.8593 12.918C30.2274 12.8127 29.2094 13.1286 28.9286 12.6723C28.7531 13.5499 28.718 14.5679 28.3318 15.1998C27.8755 15.0242 27.3138 14.9189 26.7873 14.8487C26.7873 14.252 26.7873 13.6552 26.7873 13.0584C25.8395 13.0584 24.8566 13.0584 23.9088 13.0584C23.979 16.7443 23.4173 20.8163 24.0141 23.9757C18.7836 25.2043 21.6621 16.8145 21.2409 13.0584C20.3282 13.0584 19.4155 13.0584 18.4677 13.0584C18.3273 13.7956 18.2571 14.603 17.9762 15.2349C17.5199 15.0242 16.7827 15.0945 16.3966 14.7434C16.4317 13.8307 16.2913 12.7074 16.5019 11.9702C19.4155 10.1448 25.6288 10.3555 28.7531 11.8649C29.6658 11.0575 31.105 10.4959 32.5794 10.6363C33.6325 11.6894 34.159 14.1818 34.826 16.1827C35.3526 18.2187 36.0546 20.1845 36.7567 22.0801C37.0726 20.711 37.5992 18.0783 38.1608 15.5157C38.6874 13.0584 39.1789 10.9522 40.0915 10.6714C41.0393 10.7416 41.5659 10.9873 41.8818 11.6192C39.6001 18.1485 39.6703 27.0297 34.4399 30.6103C33.9133 30.8911 33.3867 31.0315 32.8953 30.9262Z" fill="currentColor"/>
<path fill-rule="evenodd" clip-rule="evenodd" d="M55.1497 21.6592C55.8518 21.6943 57.0804 21.7645 57.5719 21.9751C57.7123 23.9058 56.9751 26.8896 56.6943 27.9428C55.9571 27.8023 55.5008 27.8725 55.0093 27.5917C55.0093 26.2227 55.0093 24.9589 55.0093 23.625C52.4116 24.292 48.129 24.1867 45.4962 23.7654C45.4962 24.8887 45.2856 26.4684 44.7941 28.013C44.1974 27.8374 43.5655 27.8374 42.9688 27.6268C42.9688 25.6961 42.9688 23.7654 42.9688 21.8698C46.5493 21.3082 46.3036 16.6394 46.8302 13.0588C46.3387 13.0237 45.6717 13.0588 45.1101 13.0237C44.8994 12.7078 45.0048 12.0759 44.759 11.8302C46.9706 10.5664 52.2361 10.1101 54.1317 11.9355C55.255 14.0066 54.7987 18.3946 55.1497 21.6592ZM49.1119 12.9184C48.7609 16.0075 48.796 19.6934 47.3216 21.6592C49.0417 21.6592 50.7618 21.6592 52.4818 21.6592C52.3414 18.9211 52.5169 15.9022 52.1308 13.1641C51.183 13.0237 50.2352 12.8833 49.1119 12.9184Z" fill="currentColor"/>
<path fill-rule="evenodd" clip-rule="evenodd" d="M10.4279 3.5459C5.37301 3.5459 -0.524405 7.44241 0.0372533 14.8844C0.598912 22.0806 6.88246 24.6432 11.2002 23.9762C14.5351 23.4497 15.7988 21.4839 15.7988 21.4839C15.7988 21.4839 15.4829 20.7116 15.202 20.2552C11.4108 22.4668 4.56562 22.0455 3.337 15.4109C2.14347 9.05717 6.98778 5.05536 12.9203 6.21378C12.9203 7.19668 12.9203 8.24979 12.9203 8.24979L14.7106 8.60083C14.7106 8.60083 15.0967 7.02116 15.3073 5.37129C14.5351 4.5288 13.0958 3.5459 10.4279 3.5459Z" fill="currentColor"/>
<path fill-rule="evenodd" clip-rule="evenodd" d="M69.4376 20.852C67.5069 21.9051 62.3817 22.8529 61.6094 18.0788C60.8021 13.0589 65.7517 12.2516 67.9632 13.1643C67.9632 13.9716 67.9632 14.9545 67.9632 14.9545C67.9632 14.9545 69.0514 15.1301 69.7886 15.0598C69.929 14.1823 70.3152 12.6377 70.2449 11.9707C66.1027 9.05712 58.3799 11.1282 58.9065 18.2192C59.433 25.3101 67.6473 25.1697 70.2449 22.0806C69.8939 21.5189 69.6131 21.0977 69.4376 20.852Z" fill="currentColor"/>
<path fill-rule="evenodd" clip-rule="evenodd" d="M74.6333 19.1665C75.546 19.1314 79.5127 18.8155 81.7945 17.5518C84.3921 16.1125 83.8656 12.9181 82.5667 11.9352C78.7053 8.84607 71.1229 11.4437 71.5442 18.1485C71.9654 25.1693 80.285 25.0991 82.8827 22.0099C82.5316 21.4834 82.2508 21.0621 82.0402 20.8164C80.285 21.7642 75.8619 22.8173 74.6333 19.1665ZM79.7935 13.3744C80.8467 13.8659 80.9169 14.5329 80.952 14.7435C80.9871 14.9541 80.8116 15.4807 80.3552 15.7966C79.267 16.5689 77.231 17.1305 74.3525 17.2709C74.3174 13.5851 78.1437 12.6022 79.7935 13.3744Z" fill="currentColor"/>
<path fill-rule="evenodd" clip-rule="evenodd" d="M110.894 16.5338C111.631 16.92 112.228 17.3763 112.649 18.0082C113.106 18.64 113.597 19.8687 112.649 21.6239C111.737 23.0631 110.192 23.8705 108.086 24.0811C106.085 24.2215 104.049 24.3268 102.785 23.5194C101.557 21.5185 102.469 16.3934 102.399 13.199C101.627 13.199 100.96 13.199 100.433 13.199C100.433 12.9181 100.328 12.3214 100.223 12.0054C104.33 10.4609 113.632 9.12695 112.263 15.0244C112.088 15.5509 111.702 16.1828 110.894 16.5338ZM104.962 16.2881C106.05 16.0424 107.7 16.0424 108.928 16.1828C111.035 13.4798 108.156 12.3214 105.067 13.1639C104.997 14.2872 104.997 15.1297 104.962 16.2881ZM104.891 17.938C104.856 19.1315 104.821 20.2197 104.786 21.343C107.033 21.6941 110.754 21.6941 110.227 19.307C109.666 17.6571 106.998 17.7273 104.891 17.938Z" fill="currentColor"/>
<path fill-rule="evenodd" clip-rule="evenodd" d="M119.461 11.5143C119.496 14.2523 119.25 17.3766 119.18 20.2902C119.707 19.3424 121.111 16.85 122.48 14.6034C123.603 12.7429 124.727 10.9877 125.569 10.6367C126.131 10.5314 127.149 10.8473 127.57 11.1281C127.956 12.427 127.149 18.3946 127.324 21.8347C127.816 21.8347 128.623 21.8347 129.36 21.8347C129.36 22.2911 129.536 22.7123 129.606 23.1687C128.307 23.8005 126.377 24.7132 124.832 23.8356C124.551 21.0273 125.008 17.3766 125.078 14.3577C123.112 17.6223 121.462 21.238 119.075 24.0814C118.092 24.3622 117.144 24.0463 116.688 23.4846C116.232 20.2902 116.863 16.6394 116.793 13.1641C116.056 13.1641 115.354 13.1641 114.617 13.1641C114.582 12.8833 114.476 12.3216 114.371 11.9706C115.284 11.5143 116.793 10.6367 118.127 10.6016C118.584 10.6016 119.461 10.742 119.461 11.5143Z" fill="currentColor"/>
<path d="M140.1 27.6617C134.624 27.6617 130.201 23.2036 130.201 17.7625C130.201 12.2863 134.659 7.86328 140.1 7.86328C145.577 7.86328 150 12.3214 150 17.7625C150 23.2036 145.541 27.6617 140.1 27.6617ZM140.1 8.63556C135.081 8.63556 130.973 12.7427 130.973 17.7625C130.973 22.7823 135.045 26.8895 140.1 26.8895C145.12 26.8895 149.227 22.8174 149.227 17.7625C149.192 12.7076 145.12 8.63556 140.1 8.63556Z" fill="currentColor"/>
<path fill-rule="evenodd" clip-rule="evenodd" d="M92.0785 10.777C91.0956 10.9877 90.3584 11.3738 89.7967 11.9706C89.1298 9.37289 85.6194 11.2334 84.4961 11.9706C84.6014 12.2865 84.7067 12.6726 84.7418 13.1641C85.479 13.1641 86.497 13.1641 86.8831 13.1641C86.8831 13.5853 86.3215 29.2416 86.3215 29.2416L86.2864 29.9787C86.2513 30.4 86.7076 31.2074 87.9714 30.9265C89.2351 30.6808 91.3413 29.8383 91.4466 29.733C91.2711 29.1714 91.2009 28.3991 91.2009 28.3991C91.2009 28.3991 90.0425 28.3991 89.0596 28.3991L89.2351 23.309C90.569 24.2217 93.1667 24.2217 94.8868 23.625C100.223 21.7645 100.082 9.12716 92.0785 10.777ZM93.7635 21.2028C92.605 21.7294 90.9201 21.7645 89.3404 21.4134C89.3404 21.3432 89.3053 21.273 89.3053 21.2379L89.551 13.6555C91.236 12.813 93.9741 12.8482 94.8517 14.3927C96.1154 16.2181 95.7995 20.2901 93.7635 21.2028Z" fill="currentColor"/>
<path fill-rule="evenodd" clip-rule="evenodd" d="M144.209 20.852C142.278 21.9051 137.153 22.8529 136.381 18.0788C135.574 13.0589 140.523 12.2516 142.77 13.1643C142.77 13.9716 142.77 14.9545 142.77 14.9545C142.77 14.9545 143.858 15.1301 144.595 15.0598C144.736 14.1823 145.122 12.6377 145.052 11.9707C140.909 9.05712 133.187 11.1282 133.713 18.2192C134.24 25.3101 142.454 25.1697 145.052 22.0806C144.701 21.5189 144.42 21.0977 144.209 20.852Z" fill="currentColor"/>
<defs>
<linearGradient id="paint0_linear_393_846" x1="64.5867" y1="9.92948" x2="64.5867" y2="32.0958" gradientUnits="userSpaceOnUse">
<stop offset="0" stop-color="#008BD2"/>
<stop offset="1" stop-color="#004F9F"/>
</linearGradient>
<linearGradient id="paint1_linear_393_846" x1="77.5611" y1="9.9288" x2="77.5611" y2="32.0958" gradientUnits="userSpaceOnUse">
<stop offset="0" stop-color="#008BD2"/>
<stop offset="1" stop-color="#004F9F"/>
</linearGradient>
<linearGradient id="paint2_linear_393_846" x1="106.706" y1="9.98243" x2="106.706" y2="32.0659" gradientUnits="userSpaceOnUse">
<stop offset="0" stop-color="#008BD2"/>
<stop offset="1" stop-color="#004F9F"/>
</linearGradient>
<linearGradient id="paint3_linear_393_846" x1="121.947" y1="9.78474" x2="121.947" y2="32.1934" gradientUnits="userSpaceOnUse">
<stop offset="0" stop-color="#008BD2"/>
<stop offset="1" stop-color="#004F9F"/>
</linearGradient>
<linearGradient id="paint4_linear_393_846" x1="140.091" y1="9.92927" x2="140.091" y2="32.0958" gradientUnits="userSpaceOnUse">
<stop offset="0" stop-color="#008BD2"/>
<stop offset="1" stop-color="#004F9F"/>
</linearGradient>
<linearGradient id="paint5_linear_393_846" x1="91.533" y1="9.9309" x2="91.533" y2="32.0958" gradientUnits="userSpaceOnUse">
<stop offset="0" stop-color="#008BD2"/>
<stop offset="1" stop-color="#004F9F"/>
</linearGradient>
<linearGradient id="paint6_linear_393_846" x1="139.382" y1="9.92948" x2="139.382" y2="32.0958" gradientUnits="userSpaceOnUse">
<stop offset="0" stop-color="#008BD2"/>
<stop offset="1" stop-color="#004F9F"/>
</linearGradient>
</defs>
</svg>
