<svg width="30" height="30" viewBox="0 0 30 30" fill="none" xmlns="http://www.w3.org/2000/svg">
<path fill-rule="evenodd" clip-rule="evenodd" d="M14.9766 29.9511H14.9648C6.69819 29.9511 0.0117926 23.2529 0 14.9981V14.9863C0 6.71968 6.69819 0.0214844 14.9648 0.0214844C23.2314 0.0214844 29.9296 6.71968 29.9296 14.9863V14.9981C29.9296 23.2529 23.2314 29.9511 14.9766 29.9511ZM15.5421 20.8828H14.41C14.41 20.8828 11.9099 21.0243 9.72832 18.7601C7.32263 16.2601 5.19996 11.2954 5.19996 11.2954C5.19996 11.2954 5.08204 10.9652 5.21176 10.8119C5.35327 10.635 5.76601 10.6232 5.76601 10.6232L8.4783 10.6114C8.4783 10.6114 8.73774 10.6586 8.91463 10.7883C9.06793 10.8944 9.15048 11.1067 9.15048 11.1067C9.15048 11.1067 9.5868 12.2152 10.1646 13.2176C11.2967 15.1752 11.8156 15.6115 12.2048 15.3992C12.759 15.0926 12.5939 12.628 12.5939 12.628C12.5939 12.628 12.6057 11.7435 12.3109 11.3426C12.0868 11.036 11.6623 10.9416 11.4736 10.918C11.3203 10.9062 11.568 10.5407 11.8982 10.3874C12.3934 10.1397 13.2543 10.1279 14.2685 10.1397C15.0397 10.1397 15.2828 10.1959 15.5792 10.2644L15.601 10.2694C16.3173 10.4417 16.2946 10.9974 16.2459 12.1937C16.2313 12.5534 16.2142 12.9709 16.2142 13.4534C16.2142 13.5605 16.2112 13.6745 16.2082 13.7917C16.1919 14.4101 16.1733 15.1179 16.5798 15.3756C16.7803 15.5171 17.2874 15.3992 18.561 13.2412C19.1624 12.2152 19.6105 11.0124 19.6105 11.0124C19.6105 11.0124 19.7048 10.8001 19.8581 10.7058C20.0114 10.6114 20.2237 10.635 20.2237 10.635L23.0775 10.6114C23.0775 10.6114 23.9266 10.5053 24.0681 10.8944C24.2096 11.3072 23.7497 12.2506 22.5822 13.8072C21.4706 15.2802 20.9309 15.8226 20.9812 16.3031C21.0179 16.6535 21.3684 16.971 22.0398 17.5926C23.4715 18.9245 23.8378 19.6087 23.9153 19.7534C23.9201 19.7625 23.9238 19.7694 23.9266 19.7743C24.5516 20.812 23.2308 20.8945 23.2308 20.8945L20.6954 20.9299C20.6954 20.9299 20.153 21.0361 19.4336 20.5408C19.0611 20.2847 18.696 19.865 18.3477 19.4646C17.8137 18.8509 17.3193 18.2825 16.8982 18.4181C16.1907 18.6422 16.2142 20.1634 16.2142 20.1634C16.2142 20.1634 16.226 20.4818 16.0609 20.6587C15.884 20.8474 15.5421 20.8828 15.5421 20.8828Z" fill="currentColor"/>
</svg>
