<svg width="169" height="13" viewBox="0 0 169 13" fill="none" xmlns="http://www.w3.org/2000/svg">
<path fill-rule="evenodd" clip-rule="evenodd" d="M0 2.21563L9.9453 8.84582C16.6395 13.3086 25.3605 13.3086 32.0547 8.84583C38.0771 4.8309 45.9229 4.8309 51.9453 8.84583C58.6395 13.3086 67.3605 13.3086 74.0547 8.84583C80.0771 4.8309 87.9229 4.8309 93.9453 8.84583C100.639 13.3086 109.361 13.3086 116.055 8.84583C122.077 4.8309 129.923 4.8309 135.945 8.84583C142.639 13.3086 151.361 13.3086 158.055 8.84583L168.555 1.84583C169.014 1.53948 169.138 0.918607 168.832 0.459078C168.526 -0.000450705 167.905 -0.124625 167.445 0.181728L156.945 7.18173C150.923 11.1967 143.077 11.1967 137.055 7.18173C130.361 2.71894 121.639 2.71894 114.945 7.18173C108.923 11.1967 101.077 11.1967 95.0547 7.18173C88.3605 2.71894 79.6395 2.71894 72.9453 7.18173C66.9229 11.1967 59.0771 11.1967 53.0547 7.18173C46.3605 2.71894 37.6395 2.71894 30.9453 7.18173C24.9229 11.1967 17.0771 11.1966 11.0547 7.18172L0.5547 0.181728C0.38394 0.0678876 0.190901 0.0134969 0 0.0136723V2.21563Z" fill="white"/>
</svg>
