<svg width="10" height="16" viewBox="0 0 10 16" fill="none" xmlns="http://www.w3.org/2000/svg">
<path fill-rule="evenodd" clip-rule="evenodd" d="M2.66732 1.9479C2.11503 1.9479 1.66732 2.39561 1.66732 2.9479V13.0521C1.66732 13.6043 2.11503 14.0521 2.66732 14.0521H7.33398C7.88627 14.0521 8.33398 13.6043 8.33398 13.0521V2.9479C8.33398 2.39561 7.88627 1.9479 7.33398 1.9479H7.2784L7.11602 2.33753C7.0125 2.58594 6.76977 2.74775 6.50065 2.74775H3.50065C3.23153 2.74775 2.98881 2.58594 2.88528 2.33753L2.72291 1.9479H2.66732ZM0.333984 2.9479C0.333984 1.65923 1.37865 0.614563 2.66732 0.614563H7.33398C8.62265 0.614563 9.66732 1.65923 9.66732 2.9479V13.0521C9.66732 14.3407 8.62265 15.3854 7.33398 15.3854H2.66732C1.37865 15.3854 0.333984 14.3407 0.333984 13.0521V2.9479Z" fill="currentColor"/>
</svg>
