<svg width="68" height="21" viewBox="0 0 68 21" fill="none" xmlns="http://www.w3.org/2000/svg">
<path d="M27.1379 0.453125L23.6934 20.6671H29.2024L32.6498 0.453125H27.1379Z" fill="white"/>
<path d="M19.0752 0.476907L13.6795 14.2622L13.1043 12.1808C12.0401 9.6728 9.01924 6.07096 5.47266 3.80103L10.4064 20.6583L16.2357 20.6484L24.9116 0.472656L19.0752 0.476907Z" fill="white"/>
<path d="M11.0124 1.92348C10.6922 0.692161 9.76409 0.325175 8.61212 0.28125H0.0708467L0 0.68366C6.64683 2.29613 11.045 6.18136 12.87 10.853L11.0124 1.92348Z" fill="white"/>
<path d="M43.8158 4.32891C45.6182 4.30057 46.9246 4.69447 47.9391 5.10255L48.4364 5.33635L49.1817 0.955187C48.0907 0.545693 46.3805 0.106445 44.2466 0.106445C38.8027 0.106445 34.9657 2.84821 34.9359 6.77736C34.9005 9.68066 37.6692 11.3016 39.7606 12.2694C41.9072 13.2613 42.627 13.8918 42.6171 14.7774C42.6001 16.1305 40.9054 16.7512 39.3227 16.7512C37.1166 16.7512 35.9448 16.4465 34.1353 15.6927L33.4255 15.3696L32.6504 19.8939C33.9398 20.4593 36.3188 20.9453 38.7885 20.9708C44.5796 20.9708 48.3429 18.2616 48.3826 14.0632C48.4067 11.7664 46.9373 10.0136 43.7535 8.57545C41.8265 7.63744 40.6476 7.01399 40.6589 6.06748C40.6589 5.22724 41.6593 4.32891 43.8158 4.32891Z" fill="white"/>
<path d="M63.3188 0.475586H59.0623C57.7403 0.475586 56.757 0.835487 56.176 2.15323L47.9961 20.6782H53.7814C53.7814 20.6782 54.7251 18.1872 54.9391 17.6417C55.5724 17.6417 61.1934 17.6502 61.994 17.6502C62.1583 18.3559 62.6656 20.6782 62.6656 20.6782H67.7765L63.3188 0.475586ZM56.5246 13.5043C56.978 12.3438 58.7194 7.85497 58.7194 7.85497C58.6897 7.91023 59.1686 6.686 59.4534 5.92511L59.8247 7.66794C59.8247 7.66794 60.8803 12.494 61.1013 13.5043H56.5246Z" fill="white"/>
</svg>
