<svg width="30" height="30" viewBox="0 0 30 30" fill="none" xmlns="http://www.w3.org/2000/svg">
<path d="M14.9648 29.9648H14.9766C23.2314 29.9648 29.9296 23.264 29.9296 15.0059C29.9296 6.73603 23.2314 0.0352173 14.9648 0.0352173C6.69819 0.0352173 0 6.73603 0 15.0059C0 23.264 6.69819 29.9648 14.9648 29.9648Z" fill="currentColor"/>
<path d="M14.9014 15.429C17.2245 15.429 19.1113 13.5414 19.1113 11.2174C19.1113 8.89332 17.2245 7.00574 14.9014 7.00574C12.5782 7.00574 10.6914 8.89332 10.6914 11.2174C10.6914 13.5414 12.5782 15.429 14.9014 15.429ZM14.9014 9.48316C15.8566 9.48316 16.6467 10.2618 16.6467 11.2292C16.6467 12.1847 15.8684 12.9751 14.9014 12.9751C13.9462 12.9751 13.1561 12.1965 13.1561 11.2292C13.1561 10.2618 13.9462 9.48316 14.9014 9.48316Z" fill="#EFF7FF"/>
<path d="M16.6007 18.862C17.4615 18.6615 18.287 18.3312 19.0417 17.8475C19.6196 17.4818 19.7964 16.7267 19.4309 16.1487C19.0653 15.5706 18.3106 15.3937 17.7327 15.7594C16.011 16.8447 13.794 16.8447 12.0723 15.7594C11.4945 15.3937 10.7397 15.5706 10.3742 16.1487C10.0086 16.7267 10.1855 17.4818 10.7633 17.8475C11.5181 18.3194 12.3553 18.6615 13.2044 18.862L10.8577 21.2097C10.3742 21.6934 10.3742 22.472 10.8577 22.9557C11.0935 23.1916 11.4119 23.3214 11.7303 23.3214C12.0487 23.3214 12.3671 23.2034 12.603 22.9557L14.9143 20.6434L17.2257 22.9557C17.7092 23.4394 18.4875 23.4394 18.971 22.9557C19.4545 22.472 19.4545 21.6934 18.971 21.2097L16.6007 18.862Z" fill="#EFF7FF"/>
</svg>
