<svg width="45" height="39" viewBox="0 0 45 39" fill="none" xmlns="http://www.w3.org/2000/svg"><path d="M20.9688 38.3594H0.578125V22.6562C0.578125 16.875 1.78125 12.3125 4.1875 8.96875C6.59375 5.625 10.7188 2.67188 16.5625 0.109375L20.9688 8.45312C17.375 10.1406 14.8906 11.8281 13.5156 13.5156C12.1406 15.1719 11.375 17.1406 11.2188 19.4219H20.9688V38.3594ZM44.7344 38.3594H24.3438V22.6562C24.3438 16.875 25.5469 12.3125 27.9531 8.96875C30.3594 5.625 34.4844 2.67188 40.3281 0.109375L44.7344 8.45312C41.1406 10.1406 38.6562 11.8281 37.2812 13.5156C35.9062 15.1719 35.1406 17.1406 34.9844 19.4219H44.7344V38.3594Z" fill="#EF7E29"/></svg>